<?xml version="1.0" encoding="UTF-8" standalone="no"?><svg xmlns="http://www.w3.org/2000/svg" xmlns:xlink="http://www.w3.org/1999/xlink" contentScriptType="application/ecmascript" contentStyleType="text/css" height="214px" preserveAspectRatio="none" style="width:567px;height:214px;" version="1.1" viewBox="0 0 567 214" width="567px" zoomAndPan="magnify"><defs><filter height="300%" id="fzlc5t9jhc77u" width="300%" x="-1" y="-1"><feGaussianBlur result="blurOut" stdDeviation="2.0"/><feColorMatrix in="blurOut" result="blurOut2" type="matrix" values="0 0 0 0 0 0 0 0 0 0 0 0 0 0 0 0 0 0 .4 0"/><feOffset dx="4.0" dy="4.0" in="blurOut2" result="blurOut3"/><feBlend in="SourceGraphic" in2="blurOut3" mode="normal"/></filter></defs><g><line style="stroke:#A80036;stroke-width:1.0;stroke-dasharray:5.0,5.0;" x1="79" x2="79" y1="67.4883" y2="146.1094"/><line style="stroke:#A80036;stroke-width:1.0;stroke-dasharray:5.0,5.0;" x1="254" x2="254" y1="67.4883" y2="146.1094"/><line style="stroke:#A80036;stroke-width:1.0;stroke-dasharray:5.0,5.0;" x1="524.5" x2="524.5" y1="67.4883" y2="146.1094"/><rect fill="#FEFECE" filter="url(#fzlc5t9jhc77u)" height="30.4883" style="stroke:#A80036;stroke-width:1.5;" width="144" x="5" y="32"/><text fill="#000000" font-family="sans-serif" font-size="14" lengthAdjust="spacing" textLength="130" x="12" y="52.5352">HealthAuthorityAPI</text><rect fill="#FEFECE" filter="url(#fzlc5t9jhc77u)" height="30.4883" style="stroke:#A80036;stroke-width:1.5;" width="144" x="5" y="145.1094"/><text fill="#000000" font-family="sans-serif" font-size="14" lengthAdjust="spacing" textLength="130" x="12" y="165.6445">HealthAuthorityAPI</text><rect fill="#FEFECE" filter="url(#fzlc5t9jhc77u)" height="30.4883" style="stroke:#A80036;stroke-width:1.5;" width="82" x="211" y="32"/><text fill="#000000" font-family="sans-serif" font-size="14" lengthAdjust="spacing" textLength="68" x="218" y="52.5352">PrivateAPI</text><rect fill="#FEFECE" filter="url(#fzlc5t9jhc77u)" height="30.4883" style="stroke:#A80036;stroke-width:1.5;" width="82" x="211" y="145.1094"/><text fill="#000000" font-family="sans-serif" font-size="14" lengthAdjust="spacing" textLength="68" x="218" y="165.6445">PrivateAPI</text><text fill="#000000" font-family="sans-serif" font-size="14" lengthAdjust="spacing" textLength="77" x="483.5" y="64.5352">SluiceRedis</text><path d="M507,15 C507,5 525,5 525,5 C525,5 543,5 543,15 L543,41 C543,51 525,51 525,51 C525,51 507,51 507,41 L507,15 " fill="#FEFECE" filter="url(#fzlc5t9jhc77u)" style="stroke:#000000;stroke-width:1.5;"/><path d="M507,15 C507,25 525,25 525,25 C525,25 543,25 543,15 " fill="none" style="stroke:#000000;stroke-width:1.5;"/><text fill="#000000" font-family="sans-serif" font-size="14" lengthAdjust="spacing" textLength="77" x="483.5" y="158.6445">SluiceRedis</text><path d="M507,171.5977 C507,161.5977 525,161.5977 525,161.5977 C525,161.5977 543,161.5977 543,171.5977 L543,197.5977 C543,207.5977 525,207.5977 525,207.5977 C525,207.5977 507,207.5977 507,197.5977 L507,171.5977 " fill="#FEFECE" filter="url(#fzlc5t9jhc77u)" style="stroke:#000000;stroke-width:1.5;"/><path d="M507,171.5977 C507,181.5977 525,181.5977 525,181.5977 C525,181.5977 543,181.5977 543,171.5977 " fill="none" style="stroke:#000000;stroke-width:1.5;"/><polygon fill="#A80036" points="242,94.7988,252,98.7988,242,102.7988,246,98.7988" style="stroke:#A80036;stroke-width:1.0;"/><line style="stroke:#A80036;stroke-width:1.0;" x1="79" x2="248" y1="98.7988" y2="98.7988"/><text fill="#000000" font-family="sans-serif" font-size="13" lengthAdjust="spacing" textLength="151" x="86" y="94.0566">POST /v1/cases/{token}</text><polygon fill="#A80036" points="513,124.1094,523,128.1094,513,132.1094,517,128.1094" style="stroke:#A80036;stroke-width:1.0;"/><line style="stroke:#A80036;stroke-width:1.0;" x1="254" x2="519" y1="128.1094" y2="128.1094"/><text fill="#000000" font-family="sans-serif" font-size="13" lengthAdjust="spacing" textLength="247" x="261" y="123.3672">Store sealed case data / tasks by token</text><!--MD5=[00cf05b8ab3d0e591acb0eeeca3632cf]
@startuml
participant HealthAuthorityAPI as HAAPI
participant PrivateAPI         as PrivateAPI
database    SluiceRedis        as Redis

HAAPI      ->  PrivateAPI : POST /v1/cases/{token}
PrivateAPI ->  Redis      : Store sealed case data / tasks by token
@enduml

PlantUML version 1.2021.5(Sun Apr 25 13:20:28 CEST 2021)
(GPL source distribution)
Java Runtime: Java(TM) SE Runtime Environment
JVM: Java HotSpot(TM) 64-Bit Server VM
Default Encoding: UTF-8
Language: en
Country: NL
--></g></svg>