<?xml version="1.0" encoding="UTF-8" standalone="no"?><svg xmlns="http://www.w3.org/2000/svg" xmlns:xlink="http://www.w3.org/1999/xlink" contentScriptType="application/ecmascript" contentStyleType="text/css" height="331px" preserveAspectRatio="none" style="width:540px;height:331px;" version="1.1" viewBox="0 0 540 331" width="540px" zoomAndPan="magnify"><defs><filter height="300%" id="fz4r1gmr7xv7r" width="300%" x="-1" y="-1"><feGaussianBlur result="blurOut" stdDeviation="2.0"/><feColorMatrix in="blurOut" result="blurOut2" type="matrix" values="0 0 0 0 0 0 0 0 0 0 0 0 0 0 0 0 0 0 .4 0"/><feOffset dx="4.0" dy="4.0" in="blurOut2" result="blurOut3"/><feBlend in="SourceGraphic" in2="blurOut3" mode="normal"/></filter></defs><g><line style="stroke:#A80036;stroke-width:1.0;stroke-dasharray:5.0,5.0;" x1="28" x2="28" y1="67.4883" y2="263.3516"/><line style="stroke:#A80036;stroke-width:1.0;stroke-dasharray:5.0,5.0;" x1="194.5" x2="194.5" y1="67.4883" y2="263.3516"/><line style="stroke:#A80036;stroke-width:1.0;stroke-dasharray:5.0,5.0;" x1="361.5" x2="361.5" y1="67.4883" y2="263.3516"/><line style="stroke:#A80036;stroke-width:1.0;stroke-dasharray:5.0,5.0;" x1="497.5" x2="497.5" y1="67.4883" y2="263.3516"/><rect fill="#FEFECE" filter="url(#fz4r1gmr7xv7r)" height="30.4883" style="stroke:#A80036;stroke-width:1.5;" width="42" x="5" y="32"/><text fill="#000000" font-family="sans-serif" font-size="14" lengthAdjust="spacing" textLength="28" x="12" y="52.5352">App</text><rect fill="#FEFECE" filter="url(#fz4r1gmr7xv7r)" height="30.4883" style="stroke:#A80036;stroke-width:1.5;" width="42" x="5" y="262.3516"/><text fill="#000000" font-family="sans-serif" font-size="14" lengthAdjust="spacing" textLength="28" x="12" y="282.8867">App</text><rect fill="#FEFECE" filter="url(#fz4r1gmr7xv7r)" height="30.4883" style="stroke:#A80036;stroke-width:1.5;" width="67" x="159.5" y="32"/><text fill="#000000" font-family="sans-serif" font-size="14" lengthAdjust="spacing" textLength="53" x="166.5" y="52.5352">Firewall</text><rect fill="#FEFECE" filter="url(#fz4r1gmr7xv7r)" height="30.4883" style="stroke:#A80036;stroke-width:1.5;" width="67" x="159.5" y="262.3516"/><text fill="#000000" font-family="sans-serif" font-size="14" lengthAdjust="spacing" textLength="53" x="166.5" y="282.8867">Firewall</text><rect fill="#FEFECE" filter="url(#fz4r1gmr7xv7r)" height="30.4883" style="stroke:#A80036;stroke-width:1.5;" width="77" x="321.5" y="32"/><text fill="#000000" font-family="sans-serif" font-size="14" lengthAdjust="spacing" textLength="63" x="328.5" y="52.5352">PublicAPI</text><rect fill="#FEFECE" filter="url(#fz4r1gmr7xv7r)" height="30.4883" style="stroke:#A80036;stroke-width:1.5;" width="77" x="321.5" y="262.3516"/><text fill="#000000" font-family="sans-serif" font-size="14" lengthAdjust="spacing" textLength="63" x="328.5" y="282.8867">PublicAPI</text><text fill="#000000" font-family="sans-serif" font-size="14" lengthAdjust="spacing" textLength="77" x="456.5" y="64.5352">SluiceRedis</text><path d="M480,15 C480,5 498,5 498,5 C498,5 516,5 516,15 L516,41 C516,51 498,51 498,51 C498,51 480,51 480,41 L480,15 " fill="#FEFECE" filter="url(#fz4r1gmr7xv7r)" style="stroke:#000000;stroke-width:1.5;"/><path d="M480,15 C480,25 498,25 498,25 C498,25 516,25 516,15 " fill="none" style="stroke:#000000;stroke-width:1.5;"/><text fill="#000000" font-family="sans-serif" font-size="14" lengthAdjust="spacing" textLength="77" x="456.5" y="275.8867">SluiceRedis</text><path d="M480,288.8398 C480,278.8398 498,278.8398 498,278.8398 C498,278.8398 516,278.8398 516,288.8398 L516,314.8398 C516,324.8398 498,324.8398 498,324.8398 C498,324.8398 480,324.8398 480,314.8398 L480,288.8398 " fill="#FEFECE" filter="url(#fz4r1gmr7xv7r)" style="stroke:#000000;stroke-width:1.5;"/><path d="M480,288.8398 C480,298.8398 498,298.8398 498,298.8398 C498,298.8398 516,298.8398 516,288.8398 " fill="none" style="stroke:#000000;stroke-width:1.5;"/><polygon fill="#A80036" points="183,94.7988,193,98.7988,183,102.7988,187,98.7988" style="stroke:#A80036;stroke-width:1.0;"/><line style="stroke:#A80036;stroke-width:1.0;" x1="28" x2="189" y1="98.7988" y2="98.7988"/><text fill="#000000" font-family="sans-serif" font-size="13" lengthAdjust="spacing" textLength="143" x="35" y="94.0566">GET /v2/cases/{token}</text><polygon fill="#A80036" points="350,124.1094,360,128.1094,350,132.1094,354,128.1094" style="stroke:#A80036;stroke-width:1.0;"/><line style="stroke:#A80036;stroke-width:1.0;" x1="195" x2="356" y1="128.1094" y2="128.1094"/><text fill="#000000" font-family="sans-serif" font-size="13" lengthAdjust="spacing" textLength="143" x="202" y="123.3672">GET /v2/cases/{token}</text><polygon fill="#A80036" points="486,153.4199,496,157.4199,486,161.4199,490,157.4199" style="stroke:#A80036;stroke-width:1.0;"/><line style="stroke:#A80036;stroke-width:1.0;" x1="362" x2="492" y1="157.4199" y2="157.4199"/><text fill="#000000" font-family="sans-serif" font-size="13" lengthAdjust="spacing" textLength="112" x="369" y="152.6777">Get case by token</text><polygon fill="#A80036" points="373,182.7305,363,186.7305,373,190.7305,369,186.7305" style="stroke:#A80036;stroke-width:1.0;"/><line style="stroke:#A80036;stroke-width:1.0;stroke-dasharray:2.0,2.0;" x1="367" x2="497" y1="186.7305" y2="186.7305"/><text fill="#000000" font-family="sans-serif" font-size="13" lengthAdjust="spacing" textLength="110" x="379" y="181.9883">Case data / tasks</text><polygon fill="#A80036" points="206,212.041,196,216.041,206,220.041,202,216.041" style="stroke:#A80036;stroke-width:1.0;"/><line style="stroke:#A80036;stroke-width:1.0;stroke-dasharray:2.0,2.0;" x1="200" x2="361" y1="216.041" y2="216.041"/><text fill="#000000" font-family="sans-serif" font-size="13" lengthAdjust="spacing" textLength="126" x="212" y="211.2988">Case JSON response</text><polygon fill="#A80036" points="39,241.3516,29,245.3516,39,249.3516,35,245.3516" style="stroke:#A80036;stroke-width:1.0;"/><line style="stroke:#A80036;stroke-width:1.0;stroke-dasharray:2.0,2.0;" x1="33" x2="194" y1="245.3516" y2="245.3516"/><text fill="#000000" font-family="sans-serif" font-size="13" lengthAdjust="spacing" textLength="126" x="45" y="240.6094">Case JSON response</text><!--MD5=[53e0743accdd5eb39f2a77f9de611774]
@startuml
participant App         as App
participant Firewall    as Firewall
participant PublicAPI   as API
database    SluiceRedis as Redis

App       ->  Firewall : GET /v2/cases/{token}
Firewall  ->  API      : GET /v2/cases/{token}
API       ->  Redis    : Get case by token
Redis     - -> API      : Case data / tasks
API       - -> Firewall : Case JSON response
Firewall  - -> App      : Case JSON response
@enduml

PlantUML version 1.2021.5(Sun Apr 25 13:20:28 CEST 2021)
(GPL source distribution)
Java Runtime: Java(TM) SE Runtime Environment
JVM: Java HotSpot(TM) 64-Bit Server VM
Default Encoding: UTF-8
Language: en
Country: NL
--></g></svg>