<?xml version="1.0" encoding="UTF-8" standalone="no"?><svg xmlns="http://www.w3.org/2000/svg" xmlns:xlink="http://www.w3.org/1999/xlink" contentScriptType="application/ecmascript" contentStyleType="text/css" height="331px" preserveAspectRatio="none" style="width:642px;height:331px;" version="1.1" viewBox="0 0 642 331" width="642px" zoomAndPan="magnify"><defs><filter height="300%" id="f1kp11rqdi3dku" width="300%" x="-1" y="-1"><feGaussianBlur result="blurOut" stdDeviation="2.0"/><feColorMatrix in="blurOut" result="blurOut2" type="matrix" values="0 0 0 0 0 0 0 0 0 0 0 0 0 0 0 0 0 0 .4 0"/><feOffset dx="4.0" dy="4.0" in="blurOut2" result="blurOut3"/><feBlend in="SourceGraphic" in2="blurOut3" mode="normal"/></filter></defs><g><line style="stroke:#A80036;stroke-width:1.0;stroke-dasharray:5.0,5.0;" x1="28" x2="28" y1="67.4883" y2="263.3516"/><line style="stroke:#A80036;stroke-width:1.0;stroke-dasharray:5.0,5.0;" x1="242.5" x2="242.5" y1="67.4883" y2="263.3516"/><line style="stroke:#A80036;stroke-width:1.0;stroke-dasharray:5.0,5.0;" x1="457.5" x2="457.5" y1="67.4883" y2="263.3516"/><line style="stroke:#A80036;stroke-width:1.0;stroke-dasharray:5.0,5.0;" x1="599.5" x2="599.5" y1="67.4883" y2="263.3516"/><rect fill="#FEFECE" filter="url(#f1kp11rqdi3dku)" height="30.4883" style="stroke:#A80036;stroke-width:1.5;" width="42" x="5" y="32"/><text fill="#000000" font-family="sans-serif" font-size="14" lengthAdjust="spacing" textLength="28" x="12" y="52.5352">App</text><rect fill="#FEFECE" filter="url(#f1kp11rqdi3dku)" height="30.4883" style="stroke:#A80036;stroke-width:1.5;" width="42" x="5" y="262.3516"/><text fill="#000000" font-family="sans-serif" font-size="14" lengthAdjust="spacing" textLength="28" x="12" y="282.8867">App</text><rect fill="#FEFECE" filter="url(#f1kp11rqdi3dku)" height="30.4883" style="stroke:#A80036;stroke-width:1.5;" width="67" x="207.5" y="32"/><text fill="#000000" font-family="sans-serif" font-size="14" lengthAdjust="spacing" textLength="53" x="214.5" y="52.5352">Firewall</text><rect fill="#FEFECE" filter="url(#f1kp11rqdi3dku)" height="30.4883" style="stroke:#A80036;stroke-width:1.5;" width="67" x="207.5" y="262.3516"/><text fill="#000000" font-family="sans-serif" font-size="14" lengthAdjust="spacing" textLength="53" x="214.5" y="282.8867">Firewall</text><rect fill="#FEFECE" filter="url(#f1kp11rqdi3dku)" height="30.4883" style="stroke:#A80036;stroke-width:1.5;" width="77" x="417.5" y="32"/><text fill="#000000" font-family="sans-serif" font-size="14" lengthAdjust="spacing" textLength="63" x="424.5" y="52.5352">PublicAPI</text><rect fill="#FEFECE" filter="url(#f1kp11rqdi3dku)" height="30.4883" style="stroke:#A80036;stroke-width:1.5;" width="77" x="417.5" y="262.3516"/><text fill="#000000" font-family="sans-serif" font-size="14" lengthAdjust="spacing" textLength="63" x="424.5" y="282.8867">PublicAPI</text><text fill="#000000" font-family="sans-serif" font-size="14" lengthAdjust="spacing" textLength="77" x="558.5" y="64.5352">SluiceRedis</text><path d="M582,15 C582,5 600,5 600,5 C600,5 618,5 618,15 L618,41 C618,51 600,51 600,51 C600,51 582,51 582,41 L582,15 " fill="#FEFECE" filter="url(#f1kp11rqdi3dku)" style="stroke:#000000;stroke-width:1.5;"/><path d="M582,15 C582,25 600,25 600,25 C600,25 618,25 618,15 " fill="none" style="stroke:#000000;stroke-width:1.5;"/><text fill="#000000" font-family="sans-serif" font-size="14" lengthAdjust="spacing" textLength="77" x="558.5" y="275.8867">SluiceRedis</text><path d="M582,288.8398 C582,278.8398 600,278.8398 600,278.8398 C600,278.8398 618,278.8398 618,288.8398 L618,314.8398 C618,324.8398 600,324.8398 600,324.8398 C600,324.8398 582,324.8398 582,314.8398 L582,288.8398 " fill="#FEFECE" filter="url(#f1kp11rqdi3dku)" style="stroke:#000000;stroke-width:1.5;"/><path d="M582,288.8398 C582,298.8398 600,298.8398 600,298.8398 C600,298.8398 618,298.8398 618,288.8398 " fill="none" style="stroke:#000000;stroke-width:1.5;"/><polygon fill="#A80036" points="231,94.7988,241,98.7988,231,102.7988,235,98.7988" style="stroke:#A80036;stroke-width:1.0;"/><line style="stroke:#A80036;stroke-width:1.0;" x1="28" x2="237" y1="98.7988" y2="98.7988"/><text fill="#000000" font-family="sans-serif" font-size="13" lengthAdjust="spacing" textLength="150" x="35" y="94.0566">GET /v2/questionnaires</text><polygon fill="#A80036" points="446,124.1094,456,128.1094,446,132.1094,450,128.1094" style="stroke:#A80036;stroke-width:1.0;"/><line style="stroke:#A80036;stroke-width:1.0;" x1="243" x2="452" y1="128.1094" y2="128.1094"/><text fill="#000000" font-family="sans-serif" font-size="13" lengthAdjust="spacing" textLength="150" x="250" y="123.3672">GET /v2/questionnaires</text><polygon fill="#A80036" points="588,153.4199,598,157.4199,588,161.4199,592,157.4199" style="stroke:#A80036;stroke-width:1.0;"/><line style="stroke:#A80036;stroke-width:1.0;" x1="458" x2="594" y1="157.4199" y2="157.4199"/><text fill="#000000" font-family="sans-serif" font-size="13" lengthAdjust="spacing" textLength="118" x="465" y="152.6777">Get questionnaires</text><polygon fill="#A80036" points="469,182.7305,459,186.7305,469,190.7305,465,186.7305" style="stroke:#A80036;stroke-width:1.0;"/><line style="stroke:#A80036;stroke-width:1.0;stroke-dasharray:2.0,2.0;" x1="463" x2="599" y1="186.7305" y2="186.7305"/><text fill="#000000" font-family="sans-serif" font-size="13" lengthAdjust="spacing" textLength="95" x="475" y="181.9883">Questionnaires</text><polygon fill="#A80036" points="254,212.041,244,216.041,254,220.041,250,216.041" style="stroke:#A80036;stroke-width:1.0;"/><line style="stroke:#A80036;stroke-width:1.0;stroke-dasharray:2.0,2.0;" x1="248" x2="457" y1="216.041" y2="216.041"/><text fill="#000000" font-family="sans-serif" font-size="13" lengthAdjust="spacing" textLength="191" x="260" y="211.2988">Questionnaires JSON response</text><polygon fill="#A80036" points="39,241.3516,29,245.3516,39,249.3516,35,245.3516" style="stroke:#A80036;stroke-width:1.0;"/><line style="stroke:#A80036;stroke-width:1.0;stroke-dasharray:2.0,2.0;" x1="33" x2="242" y1="245.3516" y2="245.3516"/><text fill="#000000" font-family="sans-serif" font-size="13" lengthAdjust="spacing" textLength="191" x="45" y="240.6094">Questionnaires JSON response</text><!--MD5=[de79b003d7374ce7580173bb280532d3]
@startuml
participant App         as App
participant Firewall    as Firewall
participant PublicAPI   as API
database    SluiceRedis as Redis

App       ->  Firewall : GET /v2/questionnaires
Firewall  ->  API      : GET /v2/questionnaires
API       ->  Redis    : Get questionnaires
Redis     - -> API      : Questionnaires
API       - -> Firewall : Questionnaires JSON response
Firewall  - -> App      : Questionnaires JSON response
@enduml

PlantUML version 1.2021.5(Sun Apr 25 13:20:28 CEST 2021)
(GPL source distribution)
Java Runtime: Java(TM) SE Runtime Environment
JVM: Java HotSpot(TM) 64-Bit Server VM
Default Encoding: UTF-8
Language: en
Country: NL
--></g></svg>